<?xml version="1.0" encoding="utf-8"?>
<!-- Generator: Adobe Illustrator 27.5.0, SVG Export Plug-In . SVG Version: 6.00 Build 0)  -->
<svg version="1.1" xmlns="http://www.w3.org/2000/svg" xmlns:xlink="http://www.w3.org/1999/xlink" x="0px" y="0px"
	 viewBox="163 330 875 540" style="enable-background:new 0 0 1200 1200;" xml:space="preserve">
<g id="Graphic_Elements">
	<path fill="#6b1c2a" d="M1000.572,745.016c-44.434-43.957-100.521-71.965-162.221-80.999
		c-7.871-1.154-15.2,4.34-16.337,12.184c-1.15,7.862,4.311,15.198,12.176,16.354c50.463,7.385,97.034,29.021,135.136,62.706
		c-46.871,41.374-107.055,64.697-170.291,65.842c-60.116,1.126-118.169-17.948-165.282-53.794
		c143.529-18.456,255.592-141.249,256.393-288.881c0.022-3.824-1.517-7.569-4.209-10.263c-2.896-2.915-6.789-4.507-10.528-4.236
		c-61.126,0.386-119.502,19.501-168.829,55.292c-6.431,4.675-7.862,13.71-3.193,20.142c2.264,3.112,5.601,5.159,9.401,5.765
		c3.8,0.605,7.623-0.305,10.739-2.569c40.309-29.253,87.63-46.223,137.276-49.293c-4.075,65.321-32.319,126.374-80.014,172.598
		c-41.287,40.016-93.359,65.12-149.248,72.602C720.055,624.094,713,458.571,609.744,354.188c-2.631-2.661-6.367-4.188-10.254-4.188
		c-3.883,0-7.619,1.526-10.247,4.185c-43.958,44.436-71.967,100.524-80.994,162.207c-1.15,7.862,4.311,15.198,12.214,16.359
		c7.865,1.108,15.177-4.362,16.318-12.184c7.386-50.454,29.02-97.026,62.7-135.133c42.975,48.756,65.893,111.571,64.677,177.702
		c-1.054,57.236-20.174,111.619-54.352,156.335C591.51,577.132,470.212,465.499,324.438,463.997c-3.934-0.027-7.6,1.44-10.359,4.171
		c-2.714,2.689-4.273,6.423-4.273,10.247v26.761c0,0.473,0.022,0.952,0.074,1.461c4.991,49.044,22.589,96.339,50.888,136.774
		c4.544,6.5,13.543,8.092,20.083,3.546c3.155-2.208,5.263-5.513,5.93-9.305c0.67-3.794-0.176-7.621-2.386-10.776
		c-25.342-36.205-41.158-78.537-45.753-122.443v-11.043c64.571,4.298,124.946,32.594,170.639,80.139
		c39.478,41.075,64.261,92.746,71.679,148.111c-113.551-87.461-278.115-78.846-381.493,22.416
		c-2.765,2.719-4.298,6.351-4.317,10.215c-0.022,3.83,1.52,7.578,4.225,10.274l18.866,18.861c0.351,0.361,0.718,0.693,1.14,1.041
		c51.565,42.029,116.721,65.173,183.473,65.172c0.007,0,0.019,0,0.022,0h0.536c52.169-0.04,103.335-14.055,147.964-40.534
		c3.311-1.964,5.662-5.103,6.613-8.834c0.955-3.733,0.396-7.614-1.565-10.921c-1.961-3.311-5.096-5.662-8.829-6.615
		c-3.739-0.961-7.625-0.396-10.937,1.568c-40.152,23.824-86.206,36.445-133.198,36.499h-0.738
		c-59.842-0.032-118.266-20.71-164.556-58.234l-7.814-7.807c48.745-42.702,111.311-65.544,177.131-64.503
		c68.167,1.099,132.125,27.821,180.097,75.246c0.016,0.016,0.032,0.032,0.048,0.047c0.001,0.001,0.002,0.002,0.003,0.004
		c0.001,0.001,0.002,0.002,0.003,0.003c0.028,0.027,0.056,0.055,0.083,0.082C642.766,820.036,716.026,850,794.038,850
		c0.009,0,0.028,0,0.038,0c78.088-0.003,151.425-30.007,206.499-84.488c2.718-2.69,4.276-6.425,4.276-10.247
		C1004.852,751.441,1003.293,747.706,1000.572,745.016z"/>
</g>
</svg>
